<svg xmlns="http://www.w3.org/2000/svg" viewBox="0 0 900 320" font-family="-apple-system, BlinkMacSystemFont, 'Segoe UI', Helvetica, Arial, sans-serif" role="img" aria-label="Markdown on disk and a live CRDT kept in sync by a two-way bridge">
  <defs>
    <linearGradient id="wire" x1="0" y1="0" x2="1" y2="0">
      <stop offset="0" stop-color="#58a6ff"/>
      <stop offset="1" stop-color="#56d4e4"/>
    </linearGradient>
    <marker id="triN" viewBox="0 0 10 10" refX="7" refY="5" markerWidth="6.5" markerHeight="6.5" orient="auto-start-reverse">
      <path d="M0,0 L10,5 L0,10 z" fill="#6e7681"/>
    </marker>
    <marker id="triA" viewBox="0 0 10 10" refX="7" refY="5" markerWidth="7" markerHeight="7" orient="auto-start-reverse">
      <path d="M0,0 L10,5 L0,10 z" fill="#56c8e0"/>
    </marker>
  </defs>

  <!-- top actors -->
  <text x="220" y="46" text-anchor="middle" font-size="18" font-weight="700" fill="#e6edf3">You · AI · Git</text>
  <text x="220" y="70" text-anchor="middle" font-size="13.5" fill="#8b949e">edit the .md file</text>
  <text x="680" y="46" text-anchor="middle" font-size="18" font-weight="700" fill="#e6edf3">Teammates</text>
  <text x="680" y="70" text-anchor="middle" font-size="13.5" fill="#8b949e">edit in real time</text>

  <!-- down connectors -->
  <line x1="220" y1="92" x2="220" y2="168" stroke="#6e7681" stroke-width="2" marker-end="url(#triN)"/>
  <line x1="680" y1="92" x2="680" y2="168" stroke="#6e7681" stroke-width="2" marker-end="url(#triN)"/>

  <!-- disk card -->
  <rect x="70" y="176" width="300" height="112" rx="16" fill="#161b22" stroke="#30363d"/>
  <text x="220" y="222" text-anchor="middle" font-size="21" font-weight="700" fill="#e6edf3">Markdown on disk</text>
  <rect x="196" y="234" width="48" height="3" rx="1.5" fill="#58a6ff"/>
  <text x="220" y="262" text-anchor="middle" font-size="13.5" fill="#8b949e">durable source of truth</text>

  <!-- crdt card -->
  <rect x="530" y="176" width="300" height="112" rx="16" fill="#161b22" stroke="#30363d"/>
  <text x="680" y="222" text-anchor="middle" font-size="21" font-weight="700" fill="#e6edf3">Live CRDT</text>
  <rect x="656" y="234" width="48" height="3" rx="1.5" fill="#56d4e4"/>
  <text x="680" y="262" text-anchor="middle" font-size="13.5" fill="#8b949e">Yjs Y.Text · live sync + merge</text>

  <!-- two-way bridge -->
  <text x="450" y="216" text-anchor="middle" font-size="13" font-weight="600" fill="#56d4e4">operations</text>
  <line x1="382" y1="232" x2="518" y2="232" stroke="url(#wire)" stroke-width="2.75" marker-start="url(#triA)" marker-end="url(#triA)"/>
  <text x="450" y="260" text-anchor="middle" font-size="12.5" fill="#8b949e">two-way</text>
</svg>
